<svg width="279" height="23" viewBox="0 0 279 23" fill="none" xmlns="http://www.w3.org/2000/svg">
<path d="M14.3667 10.12C13.8867 9.016 13.1507 8.152 12.1587 7.528C11.1827 6.888 10.0307 6.568 8.70272 6.568C7.45472 6.568 6.33472 6.856 5.34272 7.432C4.35072 8.008 3.56672 8.832 2.99072 9.904C2.41472 10.96 2.12672 12.192 2.12672 13.6C2.12672 15.008 2.41472 16.248 2.99072 17.32C3.56672 18.392 4.35072 19.216 5.34272 19.792C6.33472 20.368 7.45472 20.656 8.70272 20.656C9.87072 20.656 10.9187 20.408 11.8467 19.912C12.7907 19.4 13.5427 18.68 14.1027 17.752C14.6787 16.808 15.0067 15.712 15.0867 14.464L8.03072 14.464V13.096L16.8627 13.096V14.32C16.7827 15.792 16.3827 17.128 15.6627 18.328C14.9427 19.512 13.9747 20.448 12.7587 21.136C11.5587 21.824 10.2067 22.168 8.70272 22.168C7.15072 22.168 5.74272 21.808 4.47872 21.088C3.21472 20.352 2.21472 19.336 1.47872 18.04C0.758719 16.728 0.398719 15.248 0.398719 13.6C0.398719 11.952 0.758719 10.48 1.47872 9.184C2.21472 7.872 3.21472 6.856 4.47872 6.136C5.74272 5.4 7.15072 5.032 8.70272 5.032C10.4947 5.032 12.0627 5.48 13.4067 6.376C14.7507 7.272 15.7267 8.52 16.3347 10.12H14.3667ZM35.1802 18.016L27.5482 18.016L26.0842 22H24.3082L30.4282 5.44H32.3242L38.4202 22H36.6442L35.1802 18.016ZM34.6762 16.624L31.3642 7.552L28.0522 16.624L34.6762 16.624ZM55.5644 22L51.4124 14.992H48.3164V22H46.6364V5.224L51.6764 5.224C53.5484 5.224 54.9644 5.672 55.9244 6.568C56.9004 7.464 57.3884 8.64 57.3884 10.096C57.3884 11.312 57.0364 12.352 56.3324 13.216C55.6444 14.064 54.6204 14.616 53.2604 14.872L57.5804 22H55.5644ZM48.3164 13.624H51.7004C53.0124 13.624 53.9964 13.304 54.6524 12.664C55.3244 12.024 55.6604 11.168 55.6604 10.096C55.6604 8.992 55.3404 8.144 54.7004 7.552C54.0604 6.944 53.0524 6.64 51.6764 6.64L48.3164 6.64V13.624ZM71.3303 22.168C70.2263 22.168 69.2503 21.976 68.4023 21.592C67.5703 21.208 66.9143 20.672 66.4343 19.984C65.9543 19.296 65.6983 18.528 65.6663 17.68H67.4423C67.5223 18.496 67.8823 19.216 68.5223 19.84C69.1623 20.448 70.0983 20.752 71.3303 20.752C72.4663 20.752 73.3623 20.464 74.0183 19.888C74.6903 19.296 75.0263 18.552 75.0263 17.656C75.0263 16.936 74.8423 16.36 74.4743 15.928C74.1063 15.48 73.6503 15.152 73.1063 14.944C72.5623 14.72 71.8103 14.48 70.8503 14.224C69.7303 13.92 68.8423 13.624 68.1863 13.336C67.5303 13.048 66.9703 12.6 66.5063 11.992C66.0423 11.384 65.8103 10.56 65.8103 9.52C65.8103 8.656 66.0343 7.888 66.4823 7.216C66.9303 6.528 67.5623 5.992 68.3783 5.608C69.1943 5.224 70.1303 5.032 71.1863 5.032C72.7383 5.032 73.9863 5.416 74.9303 6.184C75.8903 6.936 76.4423 7.912 76.5863 9.112H74.7623C74.6503 8.424 74.2743 7.816 73.6343 7.288C72.9943 6.744 72.1303 6.472 71.0423 6.472C70.0343 6.472 69.1943 6.744 68.5223 7.288C67.8503 7.816 67.5143 8.544 67.5143 9.472C67.5143 10.176 67.6983 10.744 68.0663 11.176C68.4343 11.608 68.8903 11.936 69.4343 12.16C69.9943 12.384 70.7463 12.624 71.6903 12.88C72.7783 13.184 73.6583 13.488 74.3303 13.792C75.0023 14.08 75.5703 14.528 76.0343 15.136C76.4983 15.744 76.7303 16.56 76.7303 17.584C76.7303 18.368 76.5223 19.112 76.1063 19.816C75.6903 20.52 75.0743 21.088 74.2583 21.52C73.4423 21.952 72.4663 22.168 71.3303 22.168ZM93.0327 22.168C91.4807 22.168 90.0727 21.808 88.8087 21.088C87.5447 20.352 86.5447 19.336 85.8087 18.04C85.0887 16.728 84.7287 15.248 84.7287 13.6C84.7287 11.952 85.0887 10.48 85.8087 9.184C86.5447 7.872 87.5447 6.856 88.8087 6.136C90.0727 5.4 91.4807 5.032 93.0327 5.032C94.6007 5.032 96.0167 5.4 97.2807 6.136C98.5447 6.856 99.5367 7.872 100.257 9.184C100.977 10.48 101.337 11.952 101.337 13.6C101.337 15.248 100.977 16.728 100.257 18.04C99.5367 19.336 98.5447 20.352 97.2807 21.088C96.0167 21.808 94.6007 22.168 93.0327 22.168ZM93.0327 20.704C94.2807 20.704 95.4007 20.416 96.3927 19.84C97.3847 19.264 98.1687 18.44 98.7447 17.368C99.3207 16.28 99.6087 15.024 99.6087 13.6C99.6087 12.176 99.3207 10.928 98.7447 9.856C98.1687 8.784 97.3847 7.96 96.3927 7.384C95.4007 6.808 94.2807 6.52 93.0327 6.52C91.7847 6.52 90.6647 6.808 89.6727 7.384C88.6807 7.96 87.8967 8.784 87.3207 9.856C86.7447 10.928 86.4567 12.176 86.4567 13.6C86.4567 15.024 86.7447 16.28 87.3207 17.368C87.8967 18.44 88.6807 19.264 89.6727 19.84C90.6647 20.416 91.7847 20.704 93.0327 20.704ZM123.117 20.512H131.685V22H121.149V20.656L129.597 6.712L121.293 6.712V5.224L131.565 5.224V6.568L123.117 20.512ZM129.645 2.104L126.429 4.072L123.213 2.104V0.759999L126.429 2.752L129.645 0.759999V2.104ZM141.846 6.592V12.856L148.206 12.856V14.248L141.846 14.248V20.608H148.926V22L140.166 22V5.2L148.926 5.2V6.592L141.846 6.592ZM174.148 5.44V22H172.468V8.776L166.564 22H165.34L159.436 8.824V22H157.756V5.44H159.532L165.94 19.792L172.348 5.44H174.148ZM185.16 6.592V12.856L191.52 12.856V14.248L185.16 14.248V20.608H192.24V22L183.48 22V5.2L192.24 5.2V6.592L185.16 6.592ZM187.512 3.832C187.208 3.832 186.944 3.728 186.72 3.52C186.512 3.296 186.408 3.032 186.408 2.728C186.408 2.424 186.512 2.168 186.72 1.96C186.944 1.736 187.208 1.624 187.512 1.624C187.816 1.624 188.072 1.736 188.28 1.96C188.504 2.168 188.616 2.424 188.616 2.728C188.616 3.032 188.504 3.296 188.28 3.52C188.072 3.728 187.816 3.832 187.512 3.832ZM202.75 20.632L208.774 20.632V22L201.07 22V5.224H202.75V20.632ZM226.411 18.016H218.779L217.315 22H215.539L221.659 5.44H223.555L229.651 22L227.875 22L226.411 18.016ZM225.907 16.624L222.595 7.552L219.283 16.624H225.907ZM248.596 10.048C248.596 11.488 248.124 12.648 247.18 13.528C246.236 14.408 244.82 14.848 242.932 14.848H239.548V22H237.868V5.224L242.932 5.224C244.804 5.224 246.212 5.664 247.156 6.544C248.116 7.424 248.596 8.592 248.596 10.048ZM242.932 13.408C245.556 13.408 246.868 12.288 246.868 10.048C246.868 8.928 246.556 8.08 245.932 7.504C245.308 6.928 244.308 6.64 242.932 6.64L239.548 6.64V13.408H242.932ZM258.615 5.224V22H256.935V5.224H258.615ZM273.027 22.168C271.923 22.168 270.947 21.976 270.099 21.592C269.267 21.208 268.611 20.672 268.131 19.984C267.651 19.296 267.395 18.528 267.363 17.68H269.139C269.219 18.496 269.579 19.216 270.219 19.84C270.859 20.448 271.795 20.752 273.027 20.752C274.163 20.752 275.059 20.464 275.715 19.888C276.387 19.296 276.723 18.552 276.723 17.656C276.723 16.936 276.539 16.36 276.171 15.928C275.803 15.48 275.347 15.152 274.803 14.944C274.259 14.72 273.507 14.48 272.547 14.224C271.427 13.92 270.539 13.624 269.883 13.336C269.227 13.048 268.667 12.6 268.203 11.992C267.739 11.384 267.507 10.56 267.507 9.52C267.507 8.656 267.731 7.888 268.179 7.216C268.627 6.528 269.259 5.992 270.075 5.608C270.891 5.224 271.827 5.032 272.883 5.032C274.435 5.032 275.683 5.416 276.627 6.184C277.587 6.936 278.139 7.912 278.283 9.112H276.459C276.347 8.424 275.971 7.816 275.331 7.288C274.691 6.744 273.827 6.472 272.739 6.472C271.731 6.472 270.891 6.744 270.219 7.288C269.547 7.816 269.211 8.544 269.211 9.472C269.211 10.176 269.395 10.744 269.763 11.176C270.131 11.608 270.587 11.936 271.131 12.16C271.691 12.384 272.443 12.624 273.387 12.88C274.475 13.184 275.355 13.488 276.027 13.792C276.699 14.08 277.267 14.528 277.731 15.136C278.195 15.744 278.427 16.56 278.427 17.584C278.427 18.368 278.219 19.112 277.803 19.816C277.387 20.52 276.771 21.088 275.955 21.52C275.139 21.952 274.163 22.168 273.027 22.168Z" fill="black"/>
</svg>
