<svg width="285" height="72" viewBox="0 0 285 72" fill="none" xmlns="http://www.w3.org/2000/svg">
<path d="M5.48077 13.908H12.3822V66.9699H5.48077V13.908Z" fill="#1A1A1A"/>
<path d="M16.4399 13.908H23.1912L32.1176 56.2059H32.1929C31.7428 51.8851 31.0676 42.7887 31.0676 38.9228V13.908H37.5937V66.9699H30.9177L21.766 24.672H21.6908C22.2911 28.9927 22.9663 38.8471 22.9663 42.6372V66.9699H16.4399V13.908H16.4399Z" fill="#1A1A1A"/>
<path d="M50.3898 43.2436L48.5894 47.7918V66.9699H41.7632V13.908H48.5894V38.468L55.7157 13.908H62.842L54.9655 36.4214L63.367 66.9699H56.0908L50.3899 43.2437L50.3898 43.2436Z" fill="#1A1A1A"/>
<path d="M65.8638 57.1155V13.908H72.6899V57.4945C72.6899 60.2235 73.7402 61.5121 75.9155 61.5121C78.166 61.5121 79.2163 60.2235 79.2163 57.4945L79.2912 13.908H86.1174V57.1155C86.1174 63.9378 83.1168 67.5763 75.9155 67.5005C68.7142 67.5005 65.8638 63.9378 65.8638 57.1155H65.8638Z" fill="#1A1A1A"/>
<path d="M105.575 61.0573V66.9699H90.2725V13.908H97.0986V61.0573H105.575Z" fill="#1A1A1A"/>
<path d="M121.252 19.8206H115.476V66.9699H108.65V19.8206H102.724V13.908H121.252V19.8206Z" fill="#1A1A1A"/>
<path d="M124.027 57.1155V13.908H130.853V57.4945C130.853 60.2235 131.903 61.5121 134.079 61.5121C136.329 61.5121 137.379 60.2235 137.379 57.4945L137.454 13.908H144.281V57.1155C144.281 63.9378 141.28 67.5763 134.079 67.5005C126.877 67.5005 124.027 63.9378 124.027 57.1155H124.027ZM126.052 5.19057H142.33V9.35977H126.052V5.19057Z" fill="#1A1A1A"/>
<path d="M193.743 60.9814V66.9699H175.215C164.713 66.9699 159.087 61.6637 156.612 46.5032H155.187V66.9699H148.435V13.908H157.437C165.013 13.908 168.464 17.4706 168.464 26.188V34.2988C168.464 40.5906 166.664 44.1532 162.763 45.6693C165.163 58.1009 168.164 60.9814 175.215 60.9814H193.743ZM155.187 40.7421H157.137C160.288 40.7421 161.638 38.9228 161.638 34.2988V26.1122C161.638 21.4125 160.288 19.6689 157.137 19.6689H155.187V40.7421ZM178.441 57.4945H171.239L178.591 13.908H186.167L194.043 57.4945H186.917L185.867 49.3079H179.491L178.441 57.4945ZM185.192 44.2291L182.566 24.1413L180.091 44.2291H185.192Z" fill="#1A1A1A"/>
<path d="M196.503 57.0397V23.8381C196.503 16.94 199.353 13.3773 206.78 13.3773C214.056 13.3773 217.056 16.7885 217.056 23.4591V37.1794H210.305V23.0801C210.305 20.6544 209.18 19.3657 206.78 19.3657C204.379 19.3657 203.329 20.7301 203.329 23.4591V57.4945C203.329 60.2235 204.379 61.5121 206.78 61.5121C209.18 61.5121 210.305 60.2992 210.305 57.8735V43.9258H217.056V57.4187C217.056 64.0894 214.056 67.5763 206.78 67.5005C199.353 67.5005 196.503 63.9377 196.503 57.0397V57.0397Z" fill="#1A1A1A"/>
<path d="M221.182 13.908H228.083V66.9699H221.182V13.908Z" fill="#1A1A1A"/>
<path d="M251.787 57.2671C251.787 64.0135 248.787 67.5763 241.81 67.5005C234.759 67.5005 231.909 64.0135 231.909 57.3429V43.9258H238.735V57.7219C238.735 60.2992 239.86 61.5121 241.81 61.5121C243.911 61.5121 244.961 60.2992 244.961 57.7219L245.036 19.8206H235.359V13.908H251.862L251.787 57.2671Z" fill="#1A1A1A"/>
<path d="M269.617 56.6607H262.566V66.9699H255.965V13.908H263.991L279.519 66.9699H272.468L269.617 56.6607H269.617ZM263.466 30.2055C263.166 28.9927 262.716 26.6427 262.341 24.2929L262.566 50.9755H268.192L263.466 30.2055H263.466Z" fill="#1A1A1A"/>
</svg>
